HIERARCHY
ROOT Hips
{
  OFFSET 0.382225 96.6805 0.598322
  CHANNELS 6 Xposition Yposition Zposition Zrotation Xrotation Yrotation
  JOINT Spine
  {
    OFFSET 10.8089 -0.851416 0
    CHANNELS 3 Zrotation Xrotation Yrotation
    JOINT Spine1
    {
      OFFSET 18.8753 3.80116 0
      CHANNELS 3 Zrotation Xrotation Yrotation
      JOINT Spine2
      {
        OFFSET 13.4073 0.420477 0
        CHANNELS 3 Zrotation Xrotation Yrotation
        JOINT LeftShoulder
        {
          OFFSET 11.8837 -2.73209 -3.78198
          CHANNELS 3 Zrotation Xrotation Yrotation
          JOINT LeftArm
          {
            OFFSET 15.7849 0 -2.35849e-005
            CHANNELS 3 Zrotation Xrotation Yrotation
            JOINT LeftForeArm
            {
              OFFSET 30.3399 0 0
              CHANNELS 3 Zrotation Xrotation Yrotation
              JOINT LeftHand
              {
                OFFSET 26.9751 0 2.45913e-005
                CHANNELS 3 Zrotation Xrotation Yrotation
                End Site
                {
                  OFFSET 8 0 0
                }
              }
            }
          }
        }
        JOINT RightShoulder
        {
          OFFSET 11.8838 -2.7321 3.782
          CHANNELS 3 Zrotation Xrotation Yrotation
          JOINT RightArm
          {
            OFFSET -15.7848 0 -1.07056e-005
            CHANNELS 3 Zrotation Xrotation Yrotation
            JOINT RightForeArm
            {
              OFFSET -30.34 1.02096e-005 -2.53607e-005
              CHANNELS 3 Zrotation Xrotation Yrotation
              JOINT RightHand
              {
                OFFSET -26.9752 2.07668e-005 0
                CHANNELS 3 Zrotation Xrotation Yrotation
                End Site
                {
                  OFFSET -8 0 0
                }
              }
            }
          }
        }
        JOINT Neck
        {
          OFFSET 16.5588 -0.355318 0
          CHANNELS 3 Zrotation Xrotation Yrotation
          JOINT Head
          {
            OFFSET 9.28361 0.364157 0
            CHANNELS 3 Zrotation Xrotation Yrotation
            End Site
            {
              OFFSET 0 0 0
            }
          }
        }
      }
    }
  }
  JOINT LeftUpLeg
  {
    OFFSET -1.44883 -0.531424 -9.00581
    CHANNELS 3 Zrotation Xrotation Yrotation
    JOINT LeftLeg
    {
      OFFSET -42.572 0.0788889 -0.011964
      CHANNELS 3 Zrotation Xrotation Yrotation
      JOINT LeftFoot
      {
        OFFSET -40.1967 0 0
        CHANNELS 3 Zrotation Xrotation Yrotation
				JOINT LeftToe
        {
          OFFSET -10.4538 -16.5779 0.0801563
          CHANNELS 3 Zrotation Xrotation Yrotation
          End Site
          {
            OFFSET -1.0 -1.0 0.0
          }
        }
      }
    }
  }
  JOINT RightUpLeg
  {
    OFFSET -1.44865 -0.531427 9.0058
    CHANNELS 3 Zrotation Xrotation Yrotation
    JOINT RightLeg
    {
      OFFSET 42.5723 -3.24776e-005 0
      CHANNELS 3 Zrotation Xrotation Yrotation
      JOINT RightFoot
      {
        OFFSET 40.1968 0 -1.14003e-005
        CHANNELS 3 Zrotation Xrotation Yrotation
				JOINT RightToe
        {
          OFFSET 10.4538 16.5778 -0.0801573
          CHANNELS 3 Zrotation Xrotation Yrotation
          End Site
          {
            OFFSET -1.0 -1.0 0.0
          }
        }
      }
    }
  }
}
MOTION
Frames:	19
Frame Time:	0.0333333
-251.567 96.5771 136.973 156.077 -79.1702 62.9372 -23.8675 -5.06394 4.72412 16.2269 -0.109481 -0.206488 2.7794 1.93418e-006 1.65929e-005 -1.25362 19.5089 77.3136 -8.69034 -19.0102 10.0422 -15.6247 -13.7976 0.194365 -24.6227 -67.3593 -30.4378 -178.487 16.4795 78.7422 10.7847 -47.7246 26.0115 -16.664 -7.65431 -0.909405 -6.23624 -50.7117 2.84728 -23.508 4.63459e-006 -5.90926e-006 24.4241 11.2532 -1.64684 -12.8917 28.0039 3.24978 -0.103512 -5.9237 2.60865 0.886079 -16.5993 2.97797 -90 0 0 169.27 27.884 -0.413906 -3.12892 -5.89713 2.56989 4.36467 -9.66609 -3.61486 -90 0 0
-251.476 96.6076 136.941 155.347 -80.0094 62.2917 -22.4157 -4.70906 4.67856 15.6642 -0.0802593 -0.153177 2.7794 1.93418e-006 1.65929e-005 -1.43458 19.5337 78.0504 -8.68654 -18.755 9.81483 -16.3206 -13.6954 -0.129464 -24.6043 -67.231 -30.4161 -178.612 16.5312 79.0701 10.1794 -47.2589 25.6289 -16.436 -7.63972 -0.894635 -6.28456 -50.6444 3.08549 -23.508 4.63459e-006 -5.90926e-006 24.1593 11.5291 -1.4549 -12.1279 28.2847 3.31622 -0.0645632 -5.924 2.61246 0.779556 -16.5974 2.87987 -90 0 0 169.977 27.6121 -0.444503 -2.9231 -5.90186 2.64808 4.24932 -9.67868 -3.58416 -90 0 0
-251.481 96.6121 136.849 155.058 -79.9504 62.0013 -22.4174 -4.84402 4.77126 15.4545 -0.0695002 -0.133239 2.7794 1.93418e-006 1.65929e-005 -1.50731 19.7432 78.4002 -8.64771 -18.5294 9.98594 -17.3941 -13.5301 -0.62679 -25.5635 -67.1239 -31.2394 -178.736 16.5335 79.4063 10.0847 -46.6161 26.0004 -16.3374 -7.63327 -0.888285 -5.76111 -50.3691 4.07915 -23.508 4.63459e-006 -5.90926e-006 24.5682 12.1573 -1.74411 -12.015 28.2938 3.28299 -0.204677 -5.92465 2.59306 0.809442 -16.6552 2.9197 -90 0 0 170.125 27.5986 -0.454 -3.04944 -5.90409 2.59341 4.19261 -9.63604 -3.59584 -90 0 0
-251.555 96.5908 136.725 155.888 -79.0308 62.77 -23.8554 -5.26832 4.93934 15.6333 -0.0786658 -0.150247 2.7794 1.93418e-006 1.65929e-005 -1.47875 20.0141 78.36 -8.54391 -18.2578 10.7386 -18.6898 -13.3181 -1.22368 -27.8801 -66.8489 -33.5664 -178.789 16.5398 79.5517 10.6207 -45.6251 27.4781 -16.5999 -7.65022 -0.90533 -6.11261 -50.0163 3.8211 -23.508 4.63459e-006 -5.90926e-006 25.3263 12.9001 -2.2323 -12.7623 28.0246 3.2106 -0.215657 -5.92577 2.59382 0.747853 -16.6541 2.99105 -90 0 0 169.258 27.9287 -0.403531 -3.07791 -5.90521 2.59822 4.1934 -9.64579 -3.65365 -90 0 0
-251.463 96.6046 136.672 156.058 -79.9507 63.0597 -22.3057 -4.70343 4.97466 14.8384 -0.0383105 -0.0744248 2.7794 1.93418e-006 1.65929e-005 -1.77584 20.4735 79.6144 -9.17834 -17.42 10.633 -19.7066 -13.1421 -1.68912 -31.5213 -66.9758 -36.9195 -179.041 16.748 80.1804 10.8158 -44.6418 28.5777 -17.432 -7.70335 -0.959548 -6.0742 -50.2914 3.88152 -23.508 4.63459e-006 -5.90926e-006 25.5017 13.6787 -2.03991 -12.0177 28.4086 3.26435 -0.132803 -5.92725 2.6031 0.703861 -16.6239 2.89496 -90 0 0 170.065 27.5061 -0.425243 -2.96081 -5.90544 2.64193 4.06352 -9.69721 -3.62796 -90 0 0
-251.544 96.5857 136.51 157.077 -79.0424 64.0419 -23.8348 -5.02773 5.17758 14.9527 -0.0440463 -0.0853727 2.7794 1.93418e-006 1.65929e-005 -1.88665 21.0025 80.1135 -9.65022 -16.7378 11.5159 -20.744 -12.9538 -2.16149 -34.228 -66.499 -39.2329 -179.374 16.9322 81.0304 11.5405 -43.8002 30.5329 -18.2212 -7.75302 -1.01169 -6.36588 -50.3159 4.04916 -23.508 4.63459e-006 -5.90926e-006 26.8558 14.7103 -2.63037 -12.7944 28.2291 3.18548 -0.0619925 -5.92897 2.61527 0.618813 -16.6696 2.9845 -90 0 0 169.301 27.823 -0.343178 -3.05861 -5.90551 2.59674 4.02607 -9.74029 -3.69964 -90 0 0
-251.461 96.6181 136.371 156.559 -80.0864 63.6408 -22.1596 -4.43928 5.23793 14.1554 -0.00448162 -0.00885246 2.7794 1.93418e-006 1.65929e-005 -2.29268 21.227 81.6549 -10.0453 -15.3235 12.4016 -21.8882 -12.736 -2.67913 -36.7135 -66.2408 -41.4328 -179.792 17.2511 82.052 12.0579 -41.9948 32.4957 -19.8382 -7.85249 -1.12081 -6.92141 -50.8886 3.36137 -23.508 4.63459e-006 -5.90926e-006 27.2813 15.6173 -2.62924 -11.6938 28.5836 3.19715 -0.185062 -5.93092 2.59717 0.552871 -16.6365 2.88937 -90 0 0 170.455 27.6064 -0.345056 -2.99676 -5.90502 2.57212 3.77846 -9.90805 -3.69248 -90 0 0
-251.455 96.6236 136.227 156.683 -80.0322 63.8086 -22.1334 -4.255 5.3342 13.712 0.0170543 0.0339326 2.7794 1.93418e-006 1.65929e-005 -2.53505 21.6489 82.5546 -10.6623 -14.2408 14.7314 -22.776 -12.5597 -3.07835 -38.2597 -65.9528 -42.9161 179.979 17.5228 82.5647 13.275 -38.9533 35.8686 -21.9546 -7.97801 -1.26755 -6.99426 -51.374 3.22794 -23.508 4.63459e-006 -5.90926e-006 28.3253 16.6618 -2.92911 -11.6948 28.7463 3.16725 -0.105549 -5.93267 2.60808 0.430335 -16.7888 2.91503 -90 0 0 170.337 27.7298 -0.31457 -2.89121 -5.90376 2.64456 3.66795 -10.0195 -3.72064 -90 0 0
-251.456 96.6379 136.043 156.026 -79.9773 63.1673 -22.1371 -4.13737 5.46436 13.4138 0.0313536 0.0627915 2.7794 1.93418e-006 1.65929e-005 -2.84504 21.7652 83.687 -11.1256 -12.5808 17.4418 -23.682 -12.3732 -3.48331 -37.3738 -66.5304 -41.9703 179.792 17.9194 82.9074 13.9507 -34.8606 39.6759 -23.9475 -8.09105 -1.41013 -7.47227 -51.0733 2.79863 -23.508 4.63459e-006 -5.90926e-006 29.2404 17.5623 -3.20012 -11.5233 28.7208 3.12103 -0.143989 -5.93423 2.61146 0.294911 -16.9037 2.92267 -90 0 0 170.259 27.8295 -0.28976 -2.69114 -5.90223 2.73068 3.47534 -9.97933 -3.7627 -90 0 0
-251.57 96.627 135.847 155.14 -78.8835 62.1952 -23.671 -4.60329 5.71162 13.5784 0.0234847 0.0468417 2.7794 1.93418e-006 1.65929e-005 -3.00939 22.0332 84.2604 -11.8469 -10.4475 21.1896 -25.0623 -12.0761 -4.09548 -34.4317 -66.8812 -38.8392 179.741 18.2047 82.9299 14.2747 -29.3292 44.2297 -26.3006 -8.21833 -1.58286 -7.66947 -51.33 2.56668 -23.508 4.63459e-006 -5.90926e-006 30.5493 18.1354 -3.75152 -12.1915 28.2442 3.01023 -0.13248 -5.93545 2.60913 0.0887571 -17.0836 2.94579 -90 0 0 169.723 28.3886 -0.217662 -3.04189 -5.90177 2.57915 3.42125 -9.86958 -3.85016 -90 0 0
-251.512 96.6764 135.74 152.715 -79.6098 59.8367 -22.1032 -4.0752 5.82985 12.7432 0.0629648 0.127968 2.7794 1.93418e-006 1.65929e-005 -3.46949 21.9419 85.9596 -12.6307 -7.14162 24.6967 -27.046 -11.6224 -4.96459 -32.6667 -67.3531 -36.444 179.527 18.6227 83.3136 13.2482 -22.944 47.7669 -28.9701 -8.35692 -1.77736 -5.79775 -50.9708 4.85805 -23.508 4.63459e-006 -5.90926e-006 31.1233 18.5624 -3.66751 -11.2314 28.4967 3.01747 -0.212705 -5.93617 2.59724 -0.0506531 -17.3795 2.80148 -90 0 0 170.432 28.3672 -0.22101 -2.76489 -5.90015 2.68583 3.19014 -9.81051 -3.84823 -90 0 0
-251.547 96.7009 135.538 150.161 -79.32 57.2815 -22.1716 -4.04043 6.00999 12.3676 0.0803214 0.164645 2.7794 1.93418e-006 1.65929e-005 -3.7055 22.1286 86.7806 -13.9873 -4.19987 29.6844 -29.2637 -11.0774 -5.92044 -31.4858 -67.1511 -34.8983 179.279 19.1499 83.7282 12.2391 -17.2063 52.2667 -31.3084 -8.46437 -1.96862 -5.77895 -48.1133 5.4192 -23.508 4.63459e-006 -5.90926e-006 32.4171 18.9936 -4.06744 -11.0203 28.1715 2.92773 -0.194758 -5.93613 2.60315 -0.306206 -17.6104 2.81719 -90 0 0 170.642 28.829 -0.164391 -2.89602 -5.89955 2.61333 2.98948 -9.73112 -3.8971 -90 0 0
-251.617 96.6996 135.373 147.363 -78.9376 54.4773 -22.2217 -4.10031 6.23563 12.1274 0.0913061 0.188144 2.7794 1.93418e-006 1.65929e-005 -3.83531 22.2108 87.2275 -15.7787 -0.824017 35.3849 -31.2995 -10.5423 -6.78198 -30.9494 -67.0651 -34.1402 179.012 19.7586 84.1325 11.4345 -12.3284 57.6186 -32.6501 -8.52461 -2.07527 -6.35447 -47.5683 5.16948 -23.508 4.63459e-006 -5.90926e-006 33.2065 19.5016 -4.4807 -10.8579 27.7038 2.81288 -0.105865 -5.9352 2.61665 -0.50362 -17.867 2.87634 -90 0 0 170.587 29.584 -0.059587 -2.82325 -5.89889 2.62411 2.86216 -9.8302 -3.94869 -90 0 0
-251.692 96.7037 135.214 144.234 -78.5299 51.3578 -22.2278 -4.23622 6.43709 11.9315 0.100197 0.207366 2.7794 1.93418e-006 1.65929e-005 -3.96794 22.292 87.6877 -18.3952 2.83184 41.2441 -32.8995 -10.0987 -7.44727 -29.4978 -66.9367 -32.5745 178.633 20.4183 84.7642 10.6981 -8.6059 62.9956 -32.7143 -8.52743 -2.08038 -5.16193 -47.5623 6.67903 -23.508 4.63459e-006 -5.90926e-006 34.2182 20.9681 -5.36853 -10.5414 27.0286 2.62247 -0.105788 -5.93333 2.61757 -0.706306 -18.0384 3.07888 -90 0 0 170.621 30.0817 0.0596355 -2.82356 -5.89871 2.62445 2.76867 -9.59619 -4.00795 -90 0 0
-251.789 96.7112 135.022 140.652 -78.0018 47.7712 -22.2497 -4.59164 6.67737 11.662 0.112301 0.233822 2.7794 1.93418e-006 1.65929e-005 -3.99013 22.5782 87.6693 -21.724 5.56078 47.7336 -33.5365 -9.91641 -7.70923 -27.0041 -66.3252 -29.5973 178.172 21.2342 85.4784 9.08482 -5.85763 68.2142 -31.237 -8.46111 -1.96285 -5.38664 -47.2832 6.9948 -23.508 4.63459e-006 -5.90926e-006 35.9652 23.6668 -7.0268 -10.1481 26.3367 2.43293 -0.143534 -5.93033 2.61424 -0.94857 -18.3396 3.19516 -90 0 0 170.699 30.7641 0.188275 -2.83781 -5.89912 2.62184 2.60966 -9.35205 -4.08701 -90 0 0
-251.894 96.72 134.796 137.09 -77.3981 44.1843 -22.2728 -4.90558 6.93242 11.3709 0.125241 0.262471 2.7794 1.93418e-006 1.65929e-005 -3.96368 22.7784 87.5106 -25.0315 6.993 54.3238 -33.0116 -10.0668 -7.49356 -24.594 -65.5553 -26.6938 177.843 21.8994 85.9227 6.7564 -3.42293 73.0513 -29.1002 -8.35996 -1.79598 -5.69228 -47.7463 6.94769 -23.508 4.63459e-006 -5.90926e-006 38.2255 27.3891 -9.26063 -9.65731 25.4192 2.22302 -0.217595 -5.92601 2.60978 -1.28308 -18.5215 3.44622 -90 0 0 170.837 31.6875 0.301365 -2.8398 -5.90079 2.62248 2.28594 -9.19156 -4.1947 -90 0 0
-252.011 96.75 134.521 133.521 -76.7403 40.5566 -22.2997 -5.09156 7.26189 11.1192 0.136316 0.287311 2.7794 1.93418e-006 1.65929e-005 -3.90446 23.1332 87.1927 -28.0964 7.15826 60.7346 -31.6922 -10.4354 -6.94612 -22.3161 -64.9291 -24.771 177.667 22.3587 86.1003 4.16669 -1.4477 77.337 -26.7923 -8.24381 -1.62017 -4.79657 -47.8223 8.51739 -23.508 4.63459e-006 -5.90926e-006 40.7775 31.1535 -11.7663 -9.20605 24.5344 2.09744 -0.105075 -5.91567 2.63433 -1.73291 -18.7638 3.68025 -90 0 0 171.03 32.3031 0.43638 -2.66145 -5.8494 2.59166 1.64033 -8.69152 -4.3133 -90 0 0
-252.159 96.8002 134.156 129.874 -75.9708 36.7452 -22.4114 -5.16882 7.71378 10.9303 0.144555 0.305966 2.7794 1.93418e-006 1.65929e-005 -3.82428 23.7752 86.7364 -30.5497 6.18557 66.4806 -29.6963 -10.9665 -6.10475 -19.9396 -63.5236 -22.1515 177.696 22.6446 85.9009 1.01933 0.231213 80.9848 -24.9834 -8.14791 -1.48572 -3.58845 -47.4419 10.6779 -23.508 4.63459e-006 -5.90926e-006 43.4276 34.254 -13.9914 -8.6277 23.689 2.07784 -0.10103 -5.90415 2.64746 -2.23603 -19.1671 3.82977 -90 0 0 174.725 32.5489 -0.932 -8.38307 -5.76382 1.68866 3.88267 -7.74692 -4.28922 -90 0 0
-252.338 96.7974 133.69 126.385 -75.039 32.971 -22.6849 -5.09435 8.21753 10.8941 0.146125 0.309549 2.7794 1.93418e-006 1.65929e-005 -3.77962 23.9994 86.532 -31.6459 5.44349 71.1921 -28.0065 -11.3911 -5.38084 -19.1511 -62.5057 -21.4265 178.013 22.5995 85.2213 -2.08167 1.65902 83.9775 -23.9602 -8.0918 -1.41104 -2.95798 -47.2482 12.2515 -23.508 4.63459e-006 -5.90926e-006 45.6152 36.5336 -15.4669 -7.98625 22.9374 2.18818 -0.189947 -5.89745 2.64333 -2.8078 -19.756 3.94704 -90 0 0 178.24 32.1575 -2.25624 -13.4188 -5.62777 0.876809 5.46681 -6.16904 -4.27676 -90 0 0
